<?xml version="1.0" encoding="UTF-8"?>
<svg width="310px" height="310px" viewBox="0 0 310 310" version="1.1" xmlns="http://www.w3.org/2000/svg" xmlns:xlink="http://www.w3.org/1999/xlink">
    <!-- Generator: Sketch 62 (91390) - https://sketch.com -->
    <title>svg</title>
    <desc>Created with Sketch.</desc>
    <g id="svg" stroke="none" stroke-width="1" fill="none" fill-rule="evenodd">
        <g id="Logo" transform="translate(43.000000, 35.000000)" fill-rule="nonzero">
            <path d="M223.672994,79.8848097 L191.539837,79.8848097 C147.519131,79.8848097 111.836497,44.1176423 111.836497,0.00159766424 L223.672994,0.00159766424 L223.672994,79.8848097 Z" id="Fill-1" fill="#06F8DB"></path>
            <path d="M111.838494,0 L79.7053369,0 C35.6846308,0 0.0019970803,35.7671674 0.0019970803,79.8832121 L111.838494,79.8832121 L111.838494,0 Z" id="Fill-3" fill="#02C4A8"></path>
            <path d="M111.838494,159.768022 L79.7053369,159.768022 C35.6846308,159.768022 0.0019970803,124.000854 0.0019970803,79.8848097 L111.838494,79.8848097 L111.838494,159.768022 Z" id="Fill-5" fill="#1B90FC"></path>
            <path d="M111.836497,79.8832121 L143.969654,79.8832121 C187.99036,79.8832121 223.672994,115.650379 223.672994,159.766424 L111.836497,159.766424 L111.836497,79.8832121 Z" id="Fill-7" fill="#E09B03"></path>
            <path d="M143.789782,79.8832121 C187.911626,79.8832121 223.672994,115.650379 223.672994,159.766424 L223.672994,79.8832121 L143.789782,79.8832121 Z" id="Fill-9" fill="#F9DA00"></path>
            <path d="M31.9532848,159.766424 C76.0733356,159.766424 111.836497,195.531798 111.836497,239.649636 L111.836497,159.766424 L31.9532848,159.766424 Z" id="Fill-11" fill="#D10570"></path>
            <path d="M79.8852092,159.768022 C35.7651583,159.768022 0.0019970803,124.000854 0.0019970803,79.8848097 L0.0019970803,159.768022 L79.8852092,159.768022 Z" id="Fill-13" fill="#1CB6F9"></path>
            <path d="M191.719709,79.8848097 C147.599658,79.8848097 111.836497,44.1176423 111.836497,0.00159766424 L111.836497,79.8848097 L191.719709,79.8848097 Z" id="Fill-15" fill="#03DABF"></path>
            <path d="M111.836497,239.651234 L143.969654,239.651234 C187.99036,239.651234 223.672994,203.88586 223.672994,159.768022 L111.836497,159.768022 L111.836497,239.651234 Z" id="Fill-17" fill="#F3037B"></path>
            <path d="M-2.8380218e-14,159.766424 L32.133157,159.766424 C76.1538631,159.766424 111.836497,195.531798 111.836497,239.649636 L-2.8380218e-14,239.649636 L-2.8380218e-14,159.766424 Z" id="Fill-20" fill="#AA025A"></path>
        </g>
    </g>
</svg>